<svg xmlns="http://www.w3.org/2000/svg" xmlns:xlink="http://www.w3.org/1999/xlink" width="500" zoomAndPan="magnify" viewBox="0 0 375 374.999991" height="500" preserveAspectRatio="xMidYMid meet" version="1.0"><defs><g/><clipPath id="b7c47491ee"><path d="M 76.742188 140.164062 L 150.992188 140.164062 L 150.992188 228.664062 L 76.742188 228.664062 Z M 76.742188 140.164062 " clip-rule="nonzero"/></clipPath></defs><rect x="-37.5" width="450" fill="#ffffff" y="-37.499999" height="449.999989" fill-opacity="1"/><rect x="-37.5" width="450" fill="#ffffff" y="-37.499999" height="449.999989" fill-opacity="1"/><rect x="-37.5" width="450" fill="#ffffff" y="-37.499999" height="449.999989" fill-opacity="1"/><g clip-path="url(#b7c47491ee)"><path fill="#000000" d="M 126.621094 141.363281 C 127.863281 140.566406 128.675781 140.164062 132.808594 142.28125 C 136.550781 144.195312 138.480469 147.097656 138.769531 147.40625 C 138.777344 147.429688 138.792969 147.472656 138.800781 147.496094 C 139.078125 147.765625 139.570312 148.667969 139.601562 148.722656 C 140.023438 149.332031 140.25 150.042969 140.488281 150.734375 C 140.992188 152.871094 140.46875 153.078125 139.324219 154.597656 C 139.316406 154.621094 139.304688 154.667969 139.296875 154.691406 C 138.976562 155.027344 138.160156 156.324219 137.375 157.125 C 136.789062 157.742188 138.515625 158.496094 139.453125 160.851562 C 139.652344 161.269531 139.585938 161.816406 139.25 162.144531 C 138.605469 162.679688 137.226562 162.183594 136.65625 162.039062 C 136.570312 161.972656 135.605469 161.453125 135.328125 161.394531 C 135.296875 161.722656 135.082031 162.402344 134.410156 163.273438 C 134.25 163.488281 133.902344 163.574219 133.90625 163.886719 C 134.628906 164.273438 137.507812 163.777344 139.046875 167.476562 C 139.121094 167.714844 139.171875 167.964844 139.289062 168.1875 C 139.382812 168.371094 139.585938 169.644531 139.695312 169.871094 C 139.953125 171.535156 140.097656 170.441406 140.109375 175.785156 C 140.199219 176.820312 140.0625 176.648438 140.105469 177.414062 C 140.113281 177.648438 140.03125 177.882812 140.089844 178.117188 C 140.136719 178.347656 140.171875 178.605469 140.054688 178.824219 C 139.941406 180.226562 139.507812 181.472656 139.335938 182.554688 C 139.152344 182.730469 139.273438 183.015625 139.167969 183.226562 C 139.058594 183.460938 138.972656 183.722656 139.007812 183.984375 C 139.417969 185.453125 138.714844 184.949219 138.59375 185.960938 C 138.59375 185.972656 138.363281 187.054688 138.285156 187.296875 C 138.203125 187.546875 138.238281 187.8125 138.191406 188.070312 C 138.152344 188.371094 137.804688 189.71875 137.804688 190.160156 C 137.820312 190.722656 138.703125 191.488281 137.921875 193.570312 C 137.828125 193.972656 137.890625 194.398438 137.757812 194.792969 C 137.234375 196.039062 137.988281 195.945312 139.246094 197.585938 C 141.511719 200.851562 142.082031 200.589844 147.289062 209.085938 C 147.289062 209.089844 149.597656 212.851562 149.597656 212.851562 C 149.75 213.113281 150.40625 214.476562 150.664062 214.882812 C 150.898438 215.234375 150.992188 215.683594 150.894531 216.09375 C 150.820312 216.40625 150.851562 216.738281 150.734375 217.039062 C 150.660156 217.234375 150.511719 217.304688 150.378906 217.441406 C 149.480469 218.355469 148.179688 221.007812 147.546875 222.574219 C 147.414062 222.894531 147.441406 223.265625 147.214844 223.542969 C 147.207031 223.566406 147.1875 223.613281 147.179688 223.636719 C 147.109375 223.730469 147.042969 223.824219 146.972656 223.914062 C 146.964844 223.941406 146.949219 223.992188 146.941406 224.019531 C 146.820312 224.167969 146.707031 224.328125 146.632812 224.507812 C 146.59375 224.519531 146.554688 224.53125 146.515625 224.546875 C 146.4375 224.75 145.839844 225.683594 145.488281 225.957031 C 145.417969 225.941406 145.347656 225.933594 145.28125 225.90625 C 145.109375 225.761719 144.949219 225.128906 144.621094 224.703125 C 144.5625 224.519531 143.769531 222.835938 143.714844 222.757812 C 143.523438 221.75 142.121094 218.714844 141.597656 217.910156 C 141.59375 217.882812 141.582031 217.828125 141.574219 217.800781 C 141.558594 217.78125 141.523438 217.75 141.507812 217.734375 C 141.445312 217.496094 141.359375 217.261719 141.21875 217.058594 C 141.144531 217.042969 140.136719 217.269531 139.699219 217.484375 C 139.628906 218.710938 139.976562 218.378906 140.148438 220.140625 C 140.1875 220.558594 140.324219 220.964844 140.328125 221.390625 C 140.328125 221.875 140.34375 222.363281 140.445312 222.839844 C 140.488281 222.878906 140.535156 222.917969 140.582031 222.957031 C 140.71875 223.398438 140.652344 223.863281 140.566406 224.308594 C 140.390625 224.992188 140.757812 225.933594 140.589844 226.398438 C 140.464844 226.796875 140.367188 227.226562 140.085938 227.550781 C 140.078125 227.578125 140.066406 227.636719 140.058594 227.664062 C 140.035156 227.671875 139.988281 227.683594 139.964844 227.691406 C 139.921875 227.800781 139.804688 227.921875 139.886719 228.042969 C 139.964844 228.183594 139.992188 228.34375 139.96875 228.507812 C 107.082031 228.507812 110.152344 228.660156 109.457031 228.164062 C 109.175781 227.96875 109.414062 227.671875 109.734375 226.351562 C 110.292969 223.828125 111.15625 221.746094 111.765625 219.222656 C 112.039062 217.4375 111.824219 211.261719 111.796875 211.167969 C 111.765625 211.039062 111.652344 210.933594 111.648438 210.792969 C 111.652344 210.601562 111.652344 210.40625 111.628906 210.210938 C 111.078125 210.25 111.398438 210.335938 110.875 210.210938 C 110.753906 209.640625 110.953125 209.476562 111.0625 208.773438 C 111.609375 205.28125 111.914062 207.292969 111.839844 198.375 C 111.75 195.628906 110.664062 189.933594 110.460938 189.28125 C 110.164062 189.390625 109.855469 189.476562 109.589844 189.648438 C 109.539062 189.660156 109.488281 189.667969 109.4375 189.679688 C 109.421875 189.699219 109.386719 189.738281 109.371094 189.757812 C 109.335938 189.761719 109.273438 189.765625 109.242188 189.765625 C 109.222656 189.785156 109.1875 189.820312 109.167969 189.835938 C 108.714844 189.933594 107.269531 190.699219 106.863281 190.828125 C 106.84375 190.84375 106.804688 190.875 106.785156 190.886719 C 106.574219 190.933594 106.382812 191.035156 106.226562 191.179688 C 106.195312 191.1875 106.128906 191.199219 106.097656 191.207031 C 106.078125 191.222656 106.039062 191.253906 106.019531 191.269531 C 105.804688 191.316406 105.617188 191.441406 105.429688 191.550781 C 105.140625 191.628906 105.167969 191.71875 104.144531 192.21875 C 100.980469 193.761719 96.226562 193.386719 95.601562 193.117188 C 94.371094 192.851562 93.550781 190.550781 89.910156 187.296875 C 84.589844 182.175781 84.617188 183.167969 85.109375 181.921875 C 85.027344 181.808594 84.960938 181.6875 84.921875 181.558594 C 85.542969 180.765625 85.832031 180.125 86.804688 178.476562 C 86.910156 178.316406 86.871094 178.113281 86.886719 177.933594 C 86.910156 177.730469 86.804688 177.550781 86.75 177.363281 C 86.644531 176.96875 86.582031 176.554688 86.382812 176.195312 C 86.277344 175.992188 85.929688 175.714844 85.976562 174.6875 C 85.984375 174.359375 86.125 174.058594 86.191406 173.742188 C 86.042969 173.527344 85.914062 173.296875 85.800781 173.058594 C 85.691406 172.828125 85.667969 172.554688 85.503906 172.347656 C 84.910156 171.554688 84.65625 171.441406 83.628906 169.207031 C 83.585938 169.144531 83.550781 169.03125 83.453125 169.0625 C 83.171875 169.121094 82.921875 169.285156 82.632812 169.304688 C 82.039062 169.382812 81.90625 168.519531 81.6875 168.09375 C 81.546875 167.761719 80.839844 167.878906 80.640625 167.855469 C 78.140625 167.542969 76.753906 167.039062 76.75 164.46875 C 76.742188 161.535156 77.347656 160.59375 82.507812 156.933594 C 82.8125 156.714844 83.050781 156.417969 83.351562 156.195312 C 83.910156 155.785156 83.464844 155.320312 83.820312 154.8125 C 83.890625 154.734375 84.003906 154.757812 84.09375 154.734375 C 84.1875 154.867188 84.21875 155.023438 84.234375 155.183594 C 88.039062 150.316406 86.105469 150.683594 85.722656 149.605469 C 85.675781 149.433594 85.828125 149.238281 86.011719 149.265625 C 86.945312 149.445312 92.984375 153.191406 93.050781 153.527344 C 93.101562 153.765625 92.808594 153.960938 92.566406 153.917969 C 92.359375 153.882812 92.230469 153.703125 92.046875 153.613281 C 91.25 153.21875 89.675781 154.9375 89.316406 156.078125 C 89.078125 156.796875 88.46875 157.265625 88.800781 157.875 C 89.023438 158.308594 89.320312 158.699219 89.535156 159.132812 C 89.871094 159.066406 90.164062 158.859375 90.382812 158.605469 C 90.589844 158.519531 90.785156 158.414062 90.957031 158.269531 C 90.910156 157.949219 90.605469 157.761719 90.449219 157.496094 C 90.449219 157.46875 90.445312 157.417969 90.441406 157.390625 C 90.660156 157.125 91.015625 157.066406 91.289062 156.882812 C 91.613281 156.667969 91.960938 156.492188 92.289062 156.28125 C 92.34375 156.269531 92.398438 156.257812 92.457031 156.246094 C 92.75 155.992188 93.070312 155.710938 93.476562 155.664062 C 93.746094 154.296875 93.839844 154.738281 94.425781 154.382812 C 94.546875 154.257812 94.570312 154.054688 94.726562 153.960938 C 95.035156 153.761719 95.398438 153.6875 95.722656 153.523438 C 95.929688 153.097656 96.914062 152.414062 97.820312 152.480469 C 98.117188 151.832031 98.011719 151.976562 99.015625 151.613281 C 99.472656 151.460938 99.742188 151.207031 100.863281 152.085938 C 100.984375 152.042969 101.101562 151.996094 101.21875 151.945312 C 101.304688 151.453125 101.421875 151.554688 101.5625 151.539062 C 101.613281 151.605469 101.664062 151.667969 101.714844 151.734375 C 101.816406 151.695312 101.9375 151.675781 102.007812 151.582031 C 102.121094 151.335938 101.953125 151.117188 102.496094 151.0625 C 102.535156 151.09375 102.574219 151.125 102.613281 151.160156 C 102.808594 150.996094 103.007812 150.765625 103.289062 150.824219 C 103.464844 150.808594 103.527344 150.984375 103.570312 151.121094 C 104.042969 150.746094 103.722656 150.632812 105.636719 150.167969 C 105.546875 149.925781 105.484375 149.644531 105.59375 149.398438 C 105.835938 148.898438 108.398438 149.261719 109.902344 149.933594 C 110.707031 150.289062 112.691406 151.425781 112.683594 152.308594 C 112.566406 152.34375 112.449219 152.375 112.328125 152.402344 C 112.308594 152.433594 112.289062 152.464844 112.269531 152.496094 C 112.527344 152.625 112.730469 152.839844 113.003906 152.941406 C 113.050781 152.980469 113.085938 153.058594 113.160156 153.050781 C 113.179688 152.984375 113.199219 152.917969 113.21875 152.851562 C 113.402344 152.828125 113.601562 152.742188 113.78125 152.839844 C 114.0625 152.976562 115.445312 153.941406 115.609375 154.097656 C 115.632812 154.097656 115.679688 154.101562 115.703125 154.101562 C 115.773438 153.863281 115.933594 153.664062 116.15625 153.546875 C 116.085938 153.226562 115.769531 153.203125 115.617188 152.800781 C 115.28125 151.75 116.050781 151.097656 116.5625 150.898438 C 116.992188 149.097656 117.449219 149.054688 118.105469 149.042969 C 118.550781 149.066406 118.882812 148.253906 118.863281 148.089844 C 118.632812 147.703125 116.148438 145.515625 116.570312 144.605469 C 116.84375 143.859375 118.886719 144.378906 119.503906 144.589844 C 120.769531 144.953125 121.578125 145.523438 121.96875 145.617188 C 122.261719 145.328125 122.601562 145.09375 122.882812 144.792969 C 123.417969 144.277344 124.808594 142.582031 126.621094 141.363281 M 106.308594 149.902344 C 106.304688 149.957031 106.304688 150.011719 106.304688 150.066406 C 106.355469 150.09375 106.402344 150.121094 106.449219 150.152344 C 106.765625 150.125 107.078125 150.082031 107.394531 150.09375 C 107.6875 150.113281 107.464844 149.910156 108.398438 150.1875 L 108.40625 150.113281 C 108.445312 150.117188 108.527344 150.125 108.566406 150.128906 C 108.21875 149.804688 106.625 149.824219 106.308594 149.902344 M 109.023438 150.371094 C 109.023438 150.433594 109.027344 150.492188 109.027344 150.554688 C 110.789062 151.496094 110.515625 151.667969 110.878906 151.46875 C 110.878906 151.378906 110.886719 151.285156 110.878906 151.191406 C 110.835938 151.128906 110.078125 150.71875 110.023438 150.6875 C 109.863281 150.601562 109.664062 150.625 109.511719 150.515625 C 109.367188 150.417969 109.191406 150.398438 109.023438 150.371094 M 107.25 151.484375 C 107.289062 151.652344 107.292969 151.828125 107.269531 152 C 107.226562 152.03125 107.1875 152.058594 107.148438 152.089844 C 107.144531 152.121094 107.136719 152.183594 107.128906 152.210938 C 107.101562 152.222656 107.042969 152.238281 107.011719 152.246094 C 107 152.226562 106.972656 152.183594 106.957031 152.164062 C 106.949219 152.089844 106.953125 152.003906 106.871094 151.976562 C 106.761719 152.019531 106.707031 152.128906 106.644531 152.21875 C 106.589844 152.234375 106.535156 152.25 106.484375 152.269531 C 106.492188 152.3125 106.496094 152.359375 106.503906 152.40625 C 106.484375 152.527344 106.46875 152.644531 106.453125 152.765625 C 106.390625 152.804688 106.332031 152.855469 106.292969 152.917969 C 106.191406 152.964844 106.085938 152.992188 105.980469 153.035156 C 105.929688 153.078125 105.910156 153.15625 105.878906 153.214844 C 105.71875 153.28125 105.539062 153.296875 105.402344 153.40625 C 102.949219 155.046875 103.101562 154.933594 103.050781 155.214844 C 102.96875 155.234375 102.882812 155.253906 102.800781 155.273438 C 102.867188 155.625 103.003906 155.960938 103.105469 156.304688 C 103.203125 156.628906 103.257812 156.96875 103.34375 157.296875 C 103.390625 157.519531 103.570312 157.667969 103.695312 157.847656 C 103.804688 157.980469 104.222656 158.664062 104.359375 158.761719 C 104.785156 159.097656 105.921875 160.503906 106.328125 160.898438 C 106.480469 161.011719 106.675781 161.058594 106.835938 161.167969 C 107.003906 161.277344 107.125 161.441406 107.285156 161.566406 C 111.335938 164.785156 109.441406 163.167969 111.050781 164.867188 C 111.347656 165.050781 111.722656 164.960938 112.039062 165.074219 C 112.28125 165.207031 112.453125 165.425781 112.65625 165.609375 C 112.886719 165.839844 113.351562 166.039062 113.472656 167.046875 C 113.472656 167.351562 114.214844 167.265625 114.894531 167.363281 C 115.070312 167.410156 115.0625 167.632812 115.132812 167.769531 C 115.285156 167.859375 115.480469 167.914062 115.550781 168.101562 C 115.835938 167.960938 116.105469 167.785156 116.410156 167.691406 C 116.902344 167.53125 117.3125 167.195312 117.796875 167.023438 C 118.496094 166.726562 118.566406 166.855469 118.945312 166.296875 C 119.144531 165.90625 119.460938 165.566406 119.851562 165.359375 C 118.828125 163.058594 120.164062 162.5625 118.378906 162.007812 C 117.621094 161.648438 116.683594 161.8125 115.425781 161.125 C 113.90625 160.472656 114.203125 159.761719 114.085938 159.371094 C 114.042969 159.070312 114.1875 158.792969 114.28125 158.515625 C 114.398438 158.28125 114.636719 158.125 114.695312 157.863281 C 114.726562 157.707031 114.835938 157.554688 114.765625 157.394531 C 114.71875 157.273438 114.746094 157.144531 114.757812 157.019531 C 114.726562 157.011719 114.667969 156.996094 114.636719 156.988281 C 114.636719 156.863281 114.660156 156.734375 114.691406 156.613281 C 114.757812 156.507812 114.820312 156.398438 114.882812 156.289062 C 114.976562 156.195312 115.128906 156.085938 115.070312 155.933594 C 114.800781 155.796875 114.519531 155.683594 114.226562 155.597656 C 114.058594 155.789062 113.792969 155.820312 113.574219 155.925781 C 113.492188 156.007812 113.429688 156.109375 113.359375 156.203125 C 113.335938 156.195312 113.28125 156.179688 113.253906 156.171875 C 113.226562 155.992188 113.277344 155.824219 113.367188 155.671875 C 113.40625 155.65625 113.449219 155.640625 113.488281 155.625 C 113.519531 155.519531 113.59375 155.417969 113.589844 155.304688 C 113.460938 155.191406 113.292969 155.125 113.121094 155.117188 C 113.035156 155.210938 112.921875 155.277344 112.804688 155.328125 C 112.792969 155.386719 112.777344 155.445312 112.765625 155.503906 C 112.496094 155.667969 112.160156 155.445312 112.027344 155.207031 C 112.117188 155.039062 112.351562 155.074219 112.511719 155.050781 C 112.527344 154.933594 112.609375 154.785156 112.492188 154.699219 C 112.394531 154.5625 112.148438 154.558594 112.136719 154.367188 C 112.335938 154.085938 112.417969 154.035156 112.339844 153.941406 C 112.1875 153.804688 111.984375 153.753906 111.816406 153.644531 C 111.722656 153.5625 111.675781 153.4375 111.558594 153.382812 C 107.875 151.273438 107.6875 151.476562 107.25 151.484375 M 111.402344 151.625 C 111.351562 151.769531 111.363281 151.929688 111.417969 152.070312 C 111.585938 152.167969 111.746094 152.320312 111.953125 152.292969 C 111.9375 152.261719 111.914062 152.203125 111.898438 152.175781 C 111.9375 152.105469 111.890625 151.558594 111.402344 151.625 M 104.890625 153.03125 C 104.835938 153.066406 103.5625 153.917969 103.503906 154.164062 C 103.71875 154.144531 105.015625 153.375 105.167969 153.109375 C 105.082031 153.0625 104.992188 152.96875 104.890625 153.03125 M 87.710938 157.835938 C 87.664062 158.070312 87.878906 158.234375 88.070312 158.320312 C 88.105469 158.507812 88.046875 158.707031 87.855469 158.78125 C 87.859375 158.796875 87.863281 158.832031 87.867188 158.851562 C 88.015625 158.957031 87.953125 159.140625 87.949219 159.292969 C 88.230469 159.277344 88.59375 159.308594 88.738281 159.597656 C 88.816406 159.578125 88.890625 159.554688 88.964844 159.523438 C 89.019531 159.40625 89.089844 159.289062 89.230469 159.273438 C 89.074219 158.644531 88.355469 158.28125 88.402344 157.195312 C 88.089844 157.296875 87.859375 157.550781 87.710938 157.835938 M 91.214844 157.277344 C 91.210938 157.328125 91.207031 157.378906 91.207031 157.429688 C 91.335938 157.578125 91.417969 157.765625 91.574219 157.890625 C 91.710938 157.917969 91.820312 157.804688 91.933594 157.75 C 92.097656 157.667969 92.128906 157.464844 92.277344 157.363281 C 92.257812 157.300781 92.234375 157.238281 92.214844 157.175781 C 91.238281 157.234375 91.804688 157.253906 91.214844 157.277344 M 90.703125 157.441406 C 90.761719 157.648438 90.929688 157.796875 91.058594 157.957031 C 91.144531 158.074219 91.289062 158.097656 91.421875 158.117188 C 91.414062 158.050781 91.410156 157.984375 91.402344 157.917969 C 90.917969 157.410156 90.980469 157.242188 90.703125 157.441406 M 86.867188 158.523438 C 86.609375 158.757812 86.339844 158.976562 86.078125 159.210938 C 86.082031 159.246094 86.085938 159.320312 86.089844 159.359375 C 86.15625 159.347656 86.21875 159.335938 86.285156 159.328125 C 86.296875 159.347656 86.320312 159.382812 86.332031 159.402344 C 86.585938 159.40625 87.15625 158.867188 87.261719 158.644531 C 87.222656 158.621094 87.183594 158.597656 87.144531 158.578125 C 87.175781 158.480469 87.238281 158.40625 87.296875 158.324219 C 87.128906 158.296875 86.992188 158.429688 86.867188 158.523438 M 87.300781 158.363281 C 87.277344 158.4375 87.222656 158.507812 87.25 158.589844 C 87.351562 158.5625 87.453125 158.535156 87.554688 158.503906 C 87.503906 158.402344 87.414062 158.355469 87.300781 158.363281 M 95.675781 159.109375 C 95.5 159.292969 95.894531 159.363281 95.765625 159.789062 C 96.199219 160.945312 95.039062 161.109375 94.683594 160.546875 C 94.578125 160.394531 94.582031 160.199219 94.523438 160.027344 C 94.347656 160.136719 94.097656 160.144531 93.976562 160.324219 C 93.941406 160.53125 94.210938 160.636719 94.214844 160.828125 C 94.261719 161.03125 93.914062 161.0625 93.863281 160.898438 C 93.8125 160.773438 93.761719 160.636719 93.636719 160.566406 C 93.394531 160.609375 91.671875 161.902344 90.269531 162.832031 C 90.15625 162.921875 89.960938 163.003906 90.003906 163.179688 C 90.09375 163.808594 90.398438 164.394531 90.425781 165.035156 C 90.429688 165.441406 90.46875 165.847656 90.511719 166.253906 C 90.714844 166.523438 91.015625 166.425781 91.128906 167.148438 C 91.222656 167.785156 91.320312 168.421875 91.449219 169.054688 C 91.679688 170.132812 91.367188 171.414062 91.589844 171.664062 C 91.664062 171.875 91.847656 172.019531 91.9375 172.222656 C 93.6875 176.46875 92.488281 173.414062 94.464844 176.847656 C 95.785156 178.878906 95.277344 178.722656 95.992188 179.480469 C 97.136719 180.546875 97.097656 181.585938 97.789062 181.664062 C 98.105469 181.710938 98.4375 181.75 98.707031 181.9375 C 98.792969 182.003906 98.894531 181.929688 98.988281 181.921875 C 99.207031 181.851562 99.4375 181.894531 99.648438 181.960938 C 99.882812 181.699219 100.230469 181.605469 100.515625 181.421875 C 101.78125 180.582031 101.851562 180.429688 102.375 180.242188 C 102.933594 179.972656 102.628906 180.195312 103.007812 179.425781 C 103.269531 178.878906 103.925781 178.140625 104.625 178.070312 C 104.933594 178.113281 105.222656 178.246094 105.535156 178.296875 C 105.648438 178.324219 106.414062 177.59375 106.535156 177.453125 C 107.273438 176.667969 107.109375 176.976562 107.558594 176.785156 C 107.640625 176.488281 107.335938 175.960938 107.957031 175.722656 C 108.121094 175.679688 108.289062 175.722656 108.457031 175.734375 C 108.300781 175.445312 108.082031 175.195312 107.945312 174.898438 C 107.828125 174.6875 107.796875 174.40625 107.570312 174.273438 C 106.191406 173.316406 106.074219 172.515625 105.339844 172 C 103.175781 170.539062 103.320312 170.507812 102.167969 169.683594 C 99.527344 167.710938 99.679688 167.960938 99.566406 167.675781 C 99.332031 167.101562 99.917969 166.164062 100.414062 165.613281 C 100.433594 165.386719 100.246094 165.21875 100.121094 165.050781 C 99.339844 163.960938 98.140625 163.378906 98.746094 161.765625 C 98.789062 161.632812 98.894531 161.511719 98.878906 161.363281 C 96.3125 159.199219 97.453125 159.902344 96.304688 158.710938 L 96.253906 158.707031 C 96.042969 158.8125 95.855469 158.957031 95.675781 159.109375 M 85.335938 159.761719 C 85.195312 159.875 85.085938 160.023438 84.964844 160.160156 C 84.910156 160.214844 84.957031 160.292969 84.960938 160.355469 C 85.105469 160.316406 85.242188 160.230469 85.320312 160.101562 C 85.324219 160.210938 85.421875 160.257812 85.503906 160.3125 C 85.683594 160.191406 85.800781 160.007812 85.953125 159.855469 C 86.007812 159.808594 86.019531 159.734375 86.039062 159.671875 C 85.980469 159.667969 85.925781 159.664062 85.867188 159.664062 C 85.875 159.589844 85.878906 159.515625 85.882812 159.441406 C 85.683594 159.515625 85.515625 159.648438 85.335938 159.761719 M 95.078125 159.902344 C 94.816406 160 94.820312 160.425781 95.078125 160.523438 C 95.269531 160.621094 95.617188 160.523438 95.589844 160.269531 C 95.597656 159.941406 95.382812 159.824219 95.078125 159.902344 M 84.253906 161.121094 C 84.1875 161.191406 84.242188 161.3125 84.308594 161.363281 C 84.386719 161.367188 84.457031 161.335938 84.523438 161.296875 C 84.722656 161.203125 84.601562 160.941406 84.632812 160.769531 C 84.480469 160.851562 84.367188 160.988281 84.253906 161.121094 M 83.589844 161.453125 C 83.078125 161.628906 83.144531 161.335938 82.53125 161.828125 C 82.523438 161.859375 82.515625 161.917969 82.507812 161.949219 C 82.484375 161.957031 82.433594 161.976562 82.410156 161.984375 C 82.199219 162.414062 81.765625 162.171875 81.261719 162.800781 C 81.601562 162.925781 81.453125 162.6875 82.46875 163.375 C 82.5 163.167969 82.757812 163.152344 82.921875 163.164062 C 83.265625 162.75 83.488281 162.929688 83.410156 162.617188 C 83.359375 162.617188 83.304688 162.617188 83.253906 162.617188 C 83.226562 162.449219 83.15625 162.289062 83.140625 162.121094 C 83.140625 161.980469 83.332031 162.035156 83.398438 161.945312 C 83.519531 161.8125 83.625 161.648438 83.804688 161.59375 C 83.90625 161.5625 84.066406 161.507812 83.980469 161.371094 C 83.84375 161.351562 83.71875 161.421875 83.589844 161.453125 M 80.851562 164.253906 C 80.933594 164.269531 81.015625 164.28125 81.097656 164.296875 C 81.09375 164.363281 81.089844 164.425781 81.085938 164.492188 C 81.3125 164.730469 81.667969 164.722656 81.972656 164.6875 C 82.121094 164.679688 82.230469 164.570312 82.351562 164.496094 C 82.335938 164.46875 82.308594 164.417969 82.292969 164.394531 C 82.183594 164.410156 82.074219 164.4375 81.964844 164.429688 C 81.984375 164.421875 82.023438 164.410156 82.042969 164.40625 C 81.972656 163.929688 82.296875 164.136719 82.046875 163.785156 C 82.046875 163.757812 82.042969 163.703125 82.042969 163.671875 C 82.125 163.605469 82.203125 163.527344 82.21875 163.417969 C 82.050781 163.429688 81.886719 163.449219 81.71875 163.445312 C 81.539062 163.230469 81.292969 163.027344 81.011719 162.992188 C 80.613281 163.269531 80.617188 163.871094 80.851562 164.253906 M 81.890625 168 C 82.199219 169.148438 82.4375 169.386719 83.378906 168.84375 C 83.433594 168.636719 83.304688 168.433594 83.226562 168.246094 C 82.964844 168.273438 82.734375 168.457031 82.464844 168.40625 C 82.417969 168.242188 82.511719 168.101562 82.625 167.992188 C 82.566406 167.914062 82.503906 167.835938 82.441406 167.761719 C 82.242188 167.78125 82 167.820312 81.890625 168 Z M 81.890625 168 " fill-opacity="1" fill-rule="nonzero"/></g><g fill="#000000" fill-opacity="1"><g transform="translate(156.187494, 176.122577)"><g><path d="M 15.171875 -19.03125 C 15.984375 -19.03125 16.660156 -19.054688 17.203125 -19.109375 L 17.203125 -18.578125 C 16.296875 -18.359375 15.582031 -17.578125 15.0625 -16.234375 L 8.71875 0.140625 L 8.28125 0.140625 L 1.703125 -16.84375 C 1.265625 -17.957031 0.644531 -18.535156 -0.15625 -18.578125 L -0.15625 -19.109375 C 0.5625 -19.054688 1.523438 -19.03125 2.734375 -19.03125 C 4.273438 -19.03125 5.425781 -19.054688 6.1875 -19.109375 L 6.1875 -18.578125 C 5.5 -18.535156 5.003906 -18.445312 4.703125 -18.3125 C 4.410156 -18.175781 4.265625 -17.929688 4.265625 -17.578125 C 4.265625 -17.273438 4.375 -16.851562 4.59375 -16.3125 L 9.484375 -3.328125 L 13.875 -14.734375 C 14.238281 -15.710938 14.421875 -16.453125 14.421875 -16.953125 C 14.421875 -17.515625 14.222656 -17.921875 13.828125 -18.171875 C 13.441406 -18.421875 12.851562 -18.554688 12.0625 -18.578125 L 12.0625 -19.109375 C 13.09375 -19.054688 14.128906 -19.03125 15.171875 -19.03125 Z M 15.171875 -19.03125 "/></g></g></g><g fill="#000000" fill-opacity="1"><g transform="translate(173.190061, 176.122577)"><g><path d="M 8.015625 -18.578125 C 7.367188 -18.535156 6.894531 -18.460938 6.59375 -18.359375 C 6.300781 -18.253906 6.097656 -18.046875 5.984375 -17.734375 C 5.878906 -17.429688 5.828125 -16.9375 5.828125 -16.25 L 5.828125 -2.859375 C 5.828125 -2.179688 5.878906 -1.6875 5.984375 -1.375 C 6.097656 -1.070312 6.300781 -0.863281 6.59375 -0.75 C 6.894531 -0.644531 7.367188 -0.578125 8.015625 -0.546875 L 8.015625 0 C 7.191406 -0.0507812 6.050781 -0.078125 4.59375 -0.078125 C 3.039062 -0.078125 1.890625 -0.0507812 1.140625 0 L 1.140625 -0.546875 C 1.785156 -0.578125 2.253906 -0.644531 2.546875 -0.75 C 2.847656 -0.863281 3.050781 -1.070312 3.15625 -1.375 C 3.269531 -1.6875 3.328125 -2.179688 3.328125 -2.859375 L 3.328125 -16.25 C 3.328125 -16.9375 3.269531 -17.429688 3.15625 -17.734375 C 3.050781 -18.046875 2.847656 -18.253906 2.546875 -18.359375 C 2.253906 -18.460938 1.785156 -18.535156 1.140625 -18.578125 L 1.140625 -19.109375 C 1.890625 -19.054688 3.039062 -19.03125 4.59375 -19.03125 C 6.03125 -19.03125 7.171875 -19.054688 8.015625 -19.109375 Z M 8.015625 -18.578125 "/></g></g></g><g fill="#000000" fill-opacity="1"><g transform="translate(182.339062, 176.122577)"><g><path d="M 18.09375 -18.578125 C 17.457031 -18.535156 16.988281 -18.4375 16.6875 -18.28125 C 16.382812 -18.132812 16.175781 -17.882812 16.0625 -17.53125 C 15.957031 -17.1875 15.90625 -16.671875 15.90625 -15.984375 L 15.90625 0.140625 L 15.28125 0.140625 L 3.9375 -17.390625 L 3.9375 -3.125 C 3.9375 -2.425781 3.992188 -1.90625 4.109375 -1.5625 C 4.234375 -1.21875 4.460938 -0.96875 4.796875 -0.8125 C 5.140625 -0.664062 5.675781 -0.578125 6.40625 -0.546875 L 6.40625 0 C 5.75 -0.0507812 4.828125 -0.078125 3.640625 -0.078125 C 2.566406 -0.078125 1.734375 -0.0507812 1.140625 0 L 1.140625 -0.546875 C 1.765625 -0.578125 2.226562 -0.664062 2.53125 -0.8125 C 2.84375 -0.96875 3.050781 -1.222656 3.15625 -1.578125 C 3.269531 -1.929688 3.328125 -2.445312 3.328125 -3.125 L 3.328125 -16.25 C 3.328125 -16.9375 3.269531 -17.429688 3.15625 -17.734375 C 3.050781 -18.046875 2.847656 -18.253906 2.546875 -18.359375 C 2.253906 -18.460938 1.785156 -18.535156 1.140625 -18.578125 L 1.140625 -19.109375 C 1.734375 -19.054688 2.566406 -19.03125 3.640625 -19.03125 C 4.453125 -19.03125 5.15625 -19.054688 5.75 -19.109375 L 15.28125 -4.421875 L 15.28125 -15.984375 C 15.28125 -16.679688 15.222656 -17.203125 15.109375 -17.546875 C 14.992188 -17.890625 14.765625 -18.132812 14.421875 -18.28125 C 14.078125 -18.4375 13.546875 -18.535156 12.828125 -18.578125 L 12.828125 -19.109375 C 13.472656 -19.054688 14.390625 -19.03125 15.578125 -19.03125 C 16.660156 -19.03125 17.5 -19.054688 18.09375 -19.109375 Z M 18.09375 -18.578125 "/></g></g></g><g fill="#000000" fill-opacity="1"><g transform="translate(201.392741, 176.122577)"><g><path d="M 13.84375 -19.03125 C 14.65625 -19.03125 15.332031 -19.054688 15.875 -19.109375 L 15.875 -18.578125 C 15.519531 -18.484375 15.171875 -18.25 14.828125 -17.875 C 14.484375 -17.507812 14.113281 -16.941406 13.71875 -16.171875 L 9.484375 -7.78125 L 9.484375 -2.859375 C 9.484375 -2.179688 9.535156 -1.6875 9.640625 -1.375 C 9.742188 -1.070312 9.941406 -0.863281 10.234375 -0.75 C 10.535156 -0.644531 11.007812 -0.578125 11.65625 -0.546875 L 11.65625 0 C 10.832031 -0.0507812 9.691406 -0.078125 8.234375 -0.078125 C 6.679688 -0.078125 5.53125 -0.0507812 4.78125 0 L 4.78125 -0.546875 C 5.425781 -0.578125 5.894531 -0.644531 6.1875 -0.75 C 6.488281 -0.863281 6.691406 -1.070312 6.796875 -1.375 C 6.910156 -1.6875 6.96875 -2.179688 6.96875 -2.859375 L 6.96875 -6.90625 L 1.484375 -17.03125 C 1.160156 -17.625 0.875 -18.023438 0.625 -18.234375 C 0.382812 -18.441406 0.148438 -18.546875 -0.078125 -18.546875 L -0.078125 -19.109375 C 0.617188 -19.054688 1.410156 -19.03125 2.296875 -19.03125 C 4.035156 -19.03125 5.296875 -19.054688 6.078125 -19.109375 L 6.078125 -18.546875 C 4.816406 -18.546875 4.1875 -18.203125 4.1875 -17.515625 C 4.1875 -17.253906 4.273438 -16.941406 4.453125 -16.578125 L 8.9375 -7.96875 L 12.390625 -14.828125 C 12.878906 -15.773438 13.125 -16.546875 13.125 -17.140625 C 13.125 -17.648438 12.925781 -18.007812 12.53125 -18.21875 C 12.132812 -18.4375 11.539062 -18.554688 10.75 -18.578125 L 10.75 -19.109375 C 11.769531 -19.054688 12.800781 -19.03125 13.84375 -19.03125 Z M 13.84375 -19.03125 "/></g></g></g><g fill="#000000" fill-opacity="1"><g transform="translate(217.342771, 176.122577)"><g><path d="M 8.015625 -18.578125 C 7.367188 -18.535156 6.894531 -18.460938 6.59375 -18.359375 C 6.300781 -18.253906 6.097656 -18.046875 5.984375 -17.734375 C 5.878906 -17.429688 5.828125 -16.9375 5.828125 -16.25 L 5.828125 -2.859375 C 5.828125 -2.179688 5.878906 -1.6875 5.984375 -1.375 C 6.097656 -1.070312 6.300781 -0.867188 6.59375 -0.765625 C 6.894531 -0.671875 7.367188 -0.625 8.015625 -0.625 L 9.984375 -0.625 C 11.097656 -0.625 11.945312 -0.78125 12.53125 -1.09375 C 13.125 -1.40625 13.554688 -1.910156 13.828125 -2.609375 C 14.097656 -3.316406 14.296875 -4.335938 14.421875 -5.671875 L 15.03125 -5.671875 C 14.976562 -5.109375 14.953125 -4.367188 14.953125 -3.453125 C 14.953125 -2.429688 15.015625 -1.28125 15.140625 0 C 13.921875 -0.0507812 11.863281 -0.078125 8.96875 -0.078125 C 5.507812 -0.078125 2.898438 -0.0507812 1.140625 0 L 1.140625 -0.546875 C 1.785156 -0.578125 2.253906 -0.644531 2.546875 -0.75 C 2.847656 -0.863281 3.050781 -1.070312 3.15625 -1.375 C 3.269531 -1.6875 3.328125 -2.179688 3.328125 -2.859375 L 3.328125 -16.25 C 3.328125 -16.9375 3.269531 -17.429688 3.15625 -17.734375 C 3.050781 -18.046875 2.847656 -18.253906 2.546875 -18.359375 C 2.253906 -18.460938 1.785156 -18.535156 1.140625 -18.578125 L 1.140625 -19.109375 C 1.890625 -19.054688 3.039062 -19.03125 4.59375 -19.03125 C 6.03125 -19.03125 7.171875 -19.054688 8.015625 -19.109375 Z M 8.015625 -18.578125 "/></g></g></g><g fill="#000000" fill-opacity="1"><g transform="translate(156.187494, 204.622575)"><g><path d="M 5.828125 -7.71875 L 5.828125 -2.859375 C 5.828125 -2.179688 5.898438 -1.6875 6.046875 -1.375 C 6.191406 -1.070312 6.441406 -0.863281 6.796875 -0.75 C 7.160156 -0.644531 7.75 -0.578125 8.5625 -0.546875 L 8.5625 0 C 7.625 -0.0507812 6.300781 -0.078125 4.59375 -0.078125 C 3.039062 -0.078125 1.890625 -0.0507812 1.140625 0 L 1.140625 -0.546875 C 1.785156 -0.578125 2.253906 -0.644531 2.546875 -0.75 C 2.847656 -0.863281 3.050781 -1.070312 3.15625 -1.375 C 3.269531 -1.6875 3.328125 -2.179688 3.328125 -2.859375 L 3.328125 -16.25 C 3.328125 -16.9375 3.269531 -17.429688 3.15625 -17.734375 C 3.050781 -18.046875 2.847656 -18.253906 2.546875 -18.359375 C 2.253906 -18.460938 1.785156 -18.535156 1.140625 -18.578125 L 1.140625 -19.109375 C 1.890625 -19.054688 2.984375 -19.03125 4.421875 -19.03125 L 7.34375 -19.0625 C 7.6875 -19.082031 8.070312 -19.09375 8.5 -19.09375 C 10.601562 -19.09375 12.210938 -18.609375 13.328125 -17.640625 C 14.453125 -16.679688 15.015625 -15.390625 15.015625 -13.765625 C 15.015625 -12.773438 14.789062 -11.828125 14.34375 -10.921875 C 13.90625 -10.015625 13.160156 -9.253906 12.109375 -8.640625 C 11.054688 -8.023438 9.65625 -7.71875 7.90625 -7.71875 Z M 7.828125 -18.578125 C 7.273438 -18.578125 6.859375 -18.515625 6.578125 -18.390625 C 6.296875 -18.265625 6.097656 -18.035156 5.984375 -17.703125 C 5.878906 -17.378906 5.828125 -16.894531 5.828125 -16.25 L 5.828125 -8.265625 L 7.640625 -8.265625 C 9.398438 -8.265625 10.617188 -8.734375 11.296875 -9.671875 C 11.972656 -10.617188 12.3125 -11.882812 12.3125 -13.46875 C 12.3125 -15.21875 11.960938 -16.503906 11.265625 -17.328125 C 10.578125 -18.160156 9.429688 -18.578125 7.828125 -18.578125 Z M 7.828125 -18.578125 "/></g></g></g><g fill="#000000" fill-opacity="1"><g transform="translate(171.975591, 204.622575)"><g><path d="M 15.3125 -2.265625 C 15.738281 -1.148438 16.359375 -0.578125 17.171875 -0.546875 L 17.171875 0 C 16.453125 -0.0507812 15.488281 -0.078125 14.28125 -0.078125 C 12.738281 -0.078125 11.585938 -0.0507812 10.828125 0 L 10.828125 -0.546875 C 11.515625 -0.578125 12.003906 -0.660156 12.296875 -0.796875 C 12.597656 -0.929688 12.75 -1.175781 12.75 -1.53125 C 12.75 -1.84375 12.640625 -2.269531 12.421875 -2.8125 L 10.765625 -7.234375 L 4.234375 -7.234375 L 3.125 -4.375 C 2.769531 -3.40625 2.59375 -2.664062 2.59375 -2.15625 C 2.59375 -1.601562 2.785156 -1.195312 3.171875 -0.9375 C 3.554688 -0.6875 4.144531 -0.554688 4.9375 -0.546875 L 4.9375 0 C 3.914062 -0.0507812 2.882812 -0.078125 1.84375 -0.078125 C 1.03125 -0.078125 0.351562 -0.0507812 -0.1875 0 L -0.1875 -0.546875 C 0.707031 -0.753906 1.414062 -1.535156 1.9375 -2.890625 L 8.28125 -19.25 L 8.71875 -19.25 Z M 10.5625 -7.78125 L 7.53125 -15.84375 L 4.453125 -7.78125 Z M 10.5625 -7.78125 "/></g></g></g><g fill="#000000" fill-opacity="1"><g transform="translate(188.978157, 204.622575)"><g><path d="M 17.8125 -1.34375 C 17.40625 -0.738281 16.992188 -0.300781 16.578125 -0.03125 C 16.160156 0.238281 15.613281 0.375 14.9375 0.375 C 14.195312 0.375 13.585938 0.160156 13.109375 -0.265625 C 12.628906 -0.703125 12.273438 -1.457031 12.046875 -2.53125 L 11.453125 -5.234375 C 11.234375 -6.171875 11.03125 -6.890625 10.84375 -7.390625 C 10.65625 -7.898438 10.367188 -8.304688 9.984375 -8.609375 C 9.609375 -8.921875 9.078125 -9.078125 8.390625 -9.078125 L 5.828125 -9.078125 L 5.828125 -2.859375 C 5.828125 -2.179688 5.878906 -1.6875 5.984375 -1.375 C 6.097656 -1.070312 6.300781 -0.863281 6.59375 -0.75 C 6.894531 -0.644531 7.367188 -0.578125 8.015625 -0.546875 L 8.015625 0 C 7.191406 -0.0507812 6.050781 -0.078125 4.59375 -0.078125 C 3.039062 -0.078125 1.890625 -0.0507812 1.140625 0 L 1.140625 -0.546875 C 1.785156 -0.578125 2.253906 -0.644531 2.546875 -0.75 C 2.847656 -0.863281 3.050781 -1.070312 3.15625 -1.375 C 3.269531 -1.6875 3.328125 -2.179688 3.328125 -2.859375 L 3.328125 -16.25 C 3.328125 -16.9375 3.269531 -17.429688 3.15625 -17.734375 C 3.050781 -18.046875 2.847656 -18.253906 2.546875 -18.359375 C 2.253906 -18.460938 1.785156 -18.535156 1.140625 -18.578125 L 1.140625 -19.109375 C 1.890625 -19.054688 2.984375 -19.03125 4.421875 -19.03125 L 7.34375 -19.0625 C 7.6875 -19.082031 8.070312 -19.09375 8.5 -19.09375 C 10.59375 -19.09375 12.203125 -18.65625 13.328125 -17.78125 C 14.453125 -16.90625 15.015625 -15.773438 15.015625 -14.390625 C 15.015625 -13.691406 14.847656 -12.984375 14.515625 -12.265625 C 14.179688 -11.554688 13.617188 -10.914062 12.828125 -10.34375 C 12.046875 -9.78125 11.03125 -9.398438 9.78125 -9.203125 L 10.09375 -9.15625 C 11.28125 -8.957031 12.144531 -8.597656 12.6875 -8.078125 C 13.226562 -7.554688 13.625 -6.726562 13.875 -5.59375 L 14.546875 -2.828125 C 14.734375 -2.003906 14.925781 -1.429688 15.125 -1.109375 C 15.320312 -0.785156 15.59375 -0.625 15.9375 -0.625 C 16.238281 -0.625 16.492188 -0.703125 16.703125 -0.859375 C 16.910156 -1.023438 17.148438 -1.285156 17.421875 -1.640625 Z M 7.828125 -18.578125 C 7.273438 -18.578125 6.859375 -18.515625 6.578125 -18.390625 C 6.296875 -18.265625 6.097656 -18.035156 5.984375 -17.703125 C 5.878906 -17.378906 5.828125 -16.894531 5.828125 -16.25 L 5.828125 -9.609375 L 7.640625 -9.609375 C 9.421875 -9.609375 10.644531 -10.003906 11.3125 -10.796875 C 11.976562 -11.585938 12.3125 -12.6875 12.3125 -14.09375 C 12.3125 -15.570312 11.957031 -16.6875 11.25 -17.4375 C 10.550781 -18.195312 9.410156 -18.578125 7.828125 -18.578125 Z M 7.828125 -18.578125 "/></g></g></g><g fill="#000000" fill-opacity="1"><g transform="translate(206.466514, 204.622575)"><g><path d="M 15.3125 -2.265625 C 15.738281 -1.148438 16.359375 -0.578125 17.171875 -0.546875 L 17.171875 0 C 16.453125 -0.0507812 15.488281 -0.078125 14.28125 -0.078125 C 12.738281 -0.078125 11.585938 -0.0507812 10.828125 0 L 10.828125 -0.546875 C 11.515625 -0.578125 12.003906 -0.660156 12.296875 -0.796875 C 12.597656 -0.929688 12.75 -1.175781 12.75 -1.53125 C 12.75 -1.84375 12.640625 -2.269531 12.421875 -2.8125 L 10.765625 -7.234375 L 4.234375 -7.234375 L 3.125 -4.375 C 2.769531 -3.40625 2.59375 -2.664062 2.59375 -2.15625 C 2.59375 -1.601562 2.785156 -1.195312 3.171875 -0.9375 C 3.554688 -0.6875 4.144531 -0.554688 4.9375 -0.546875 L 4.9375 0 C 3.914062 -0.0507812 2.882812 -0.078125 1.84375 -0.078125 C 1.03125 -0.078125 0.351562 -0.0507812 -0.1875 0 L -0.1875 -0.546875 C 0.707031 -0.753906 1.414062 -1.535156 1.9375 -2.890625 L 8.28125 -19.25 L 8.71875 -19.25 Z M 10.5625 -7.78125 L 7.53125 -15.84375 L 4.453125 -7.78125 Z M 10.5625 -7.78125 "/></g></g></g><g fill="#000000" fill-opacity="1"><g transform="translate(223.46908, 204.622575)"><g><path d="M 8.5 -19.109375 C 11.6875 -19.109375 14.070312 -18.3125 15.65625 -16.71875 C 17.238281 -15.132812 18.03125 -12.820312 18.03125 -9.78125 C 18.03125 -7.8125 17.644531 -6.085938 16.875 -4.609375 C 16.101562 -3.140625 14.984375 -2.003906 13.515625 -1.203125 C 12.046875 -0.398438 10.296875 0 8.265625 0 L 6.703125 -0.03125 C 5.691406 -0.0625 4.953125 -0.078125 4.484375 -0.078125 C 3.003906 -0.078125 1.890625 -0.0507812 1.140625 0 L 1.140625 -0.546875 C 1.785156 -0.578125 2.253906 -0.644531 2.546875 -0.75 C 2.847656 -0.863281 3.050781 -1.070312 3.15625 -1.375 C 3.269531 -1.6875 3.328125 -2.179688 3.328125 -2.859375 L 3.328125 -16.25 C 3.328125 -16.9375 3.269531 -17.429688 3.15625 -17.734375 C 3.050781 -18.046875 2.847656 -18.253906 2.546875 -18.359375 C 2.253906 -18.460938 1.785156 -18.535156 1.140625 -18.578125 L 1.140625 -19.109375 C 1.765625 -19.054688 2.632812 -19.03125 3.75 -19.03125 L 6.046875 -19.0625 C 7.273438 -19.09375 8.09375 -19.109375 8.5 -19.109375 Z M 7.828125 -18.625 C 7.273438 -18.625 6.859375 -18.5625 6.578125 -18.4375 C 6.296875 -18.3125 6.097656 -18.085938 5.984375 -17.765625 C 5.878906 -17.441406 5.828125 -16.957031 5.828125 -16.3125 L 5.828125 -2.8125 C 5.828125 -2.164062 5.878906 -1.675781 5.984375 -1.34375 C 6.097656 -1.019531 6.296875 -0.796875 6.578125 -0.671875 C 6.859375 -0.546875 7.285156 -0.484375 7.859375 -0.484375 C 9.765625 -0.484375 11.265625 -0.828125 12.359375 -1.515625 C 13.460938 -2.210938 14.234375 -3.226562 14.671875 -4.5625 C 15.117188 -5.894531 15.34375 -7.597656 15.34375 -9.671875 C 15.34375 -11.734375 15.097656 -13.414062 14.609375 -14.71875 C 14.117188 -16.03125 13.328125 -17.007812 12.234375 -17.65625 C 11.148438 -18.300781 9.679688 -18.625 7.828125 -18.625 Z M 7.828125 -18.625 "/></g></g></g><g fill="#000000" fill-opacity="1"><g transform="translate(242.981553, 204.622575)"><g><path d="M 8.015625 -18.578125 C 7.367188 -18.535156 6.894531 -18.460938 6.59375 -18.359375 C 6.300781 -18.253906 6.097656 -18.046875 5.984375 -17.734375 C 5.878906 -17.429688 5.828125 -16.9375 5.828125 -16.25 L 5.828125 -2.859375 C 5.828125 -2.179688 5.878906 -1.6875 5.984375 -1.375 C 6.097656 -1.070312 6.300781 -0.863281 6.59375 -0.75 C 6.894531 -0.644531 7.367188 -0.578125 8.015625 -0.546875 L 8.015625 0 C 7.191406 -0.0507812 6.050781 -0.078125 4.59375 -0.078125 C 3.039062 -0.078125 1.890625 -0.0507812 1.140625 0 L 1.140625 -0.546875 C 1.785156 -0.578125 2.253906 -0.644531 2.546875 -0.75 C 2.847656 -0.863281 3.050781 -1.070312 3.15625 -1.375 C 3.269531 -1.6875 3.328125 -2.179688 3.328125 -2.859375 L 3.328125 -16.25 C 3.328125 -16.9375 3.269531 -17.429688 3.15625 -17.734375 C 3.050781 -18.046875 2.847656 -18.253906 2.546875 -18.359375 C 2.253906 -18.460938 1.785156 -18.535156 1.140625 -18.578125 L 1.140625 -19.109375 C 1.890625 -19.054688 3.039062 -19.03125 4.59375 -19.03125 C 6.03125 -19.03125 7.171875 -19.054688 8.015625 -19.109375 Z M 8.015625 -18.578125 "/></g></g></g><g fill="#000000" fill-opacity="1"><g transform="translate(252.130554, 204.622575)"><g><path d="M 6.90625 -19.40625 C 7.695312 -19.40625 8.320312 -19.320312 8.78125 -19.15625 C 9.25 -18.988281 9.722656 -18.738281 10.203125 -18.40625 C 10.597656 -18.15625 10.90625 -18.03125 11.125 -18.03125 C 11.28125 -18.03125 11.40625 -18.125 11.5 -18.3125 C 11.59375 -18.507812 11.664062 -18.8125 11.71875 -19.21875 L 12.34375 -19.21875 C 12.25 -18.175781 12.203125 -16.34375 12.203125 -13.71875 L 11.578125 -13.71875 C 11.472656 -15.175781 11.054688 -16.40625 10.328125 -17.40625 C 9.597656 -18.40625 8.539062 -18.90625 7.15625 -18.90625 C 6.1875 -18.90625 5.394531 -18.609375 4.78125 -18.015625 C 4.164062 -17.429688 3.859375 -16.679688 3.859375 -15.765625 C 3.859375 -15.078125 4.015625 -14.484375 4.328125 -13.984375 C 4.648438 -13.484375 5.050781 -13.050781 5.53125 -12.6875 C 6.019531 -12.332031 6.710938 -11.875 7.609375 -11.3125 L 8.390625 -10.828125 C 9.523438 -10.128906 10.421875 -9.515625 11.078125 -8.984375 C 11.734375 -8.453125 12.257812 -7.84375 12.65625 -7.15625 C 13.050781 -6.46875 13.25 -5.664062 13.25 -4.75 C 13.25 -3.113281 12.707031 -1.847656 11.625 -0.953125 C 10.550781 -0.0664062 9.1875 0.375 7.53125 0.375 C 6.664062 0.375 5.957031 0.285156 5.40625 0.109375 C 4.863281 -0.0664062 4.335938 -0.3125 3.828125 -0.625 C 3.429688 -0.875 3.128906 -1 2.921875 -1 C 2.753906 -1 2.625 -0.90625 2.53125 -0.71875 C 2.445312 -0.53125 2.378906 -0.226562 2.328125 0.1875 L 1.703125 0.1875 C 1.773438 -0.800781 1.8125 -2.960938 1.8125 -6.296875 L 2.4375 -6.296875 C 2.5625 -4.472656 3.007812 -2.992188 3.78125 -1.859375 C 4.550781 -0.722656 5.738281 -0.15625 7.34375 -0.15625 C 8.3125 -0.15625 9.140625 -0.457031 9.828125 -1.0625 C 10.515625 -1.664062 10.859375 -2.5625 10.859375 -3.75 C 10.859375 -4.757812 10.519531 -5.613281 9.84375 -6.3125 C 9.164062 -7.019531 8.097656 -7.8125 6.640625 -8.6875 C 5.578125 -9.34375 4.71875 -9.921875 4.0625 -10.421875 C 3.40625 -10.921875 2.867188 -11.523438 2.453125 -12.234375 C 2.046875 -12.953125 1.84375 -13.785156 1.84375 -14.734375 C 1.84375 -16.253906 2.328125 -17.410156 3.296875 -18.203125 C 4.265625 -19.003906 5.46875 -19.40625 6.90625 -19.40625 Z M 6.90625 -19.40625 "/></g></g></g><g fill="#000000" fill-opacity="1"><g transform="translate(266.704181, 204.622575)"><g><path d="M 14.953125 -3.453125 C 14.953125 -2.429688 15.015625 -1.28125 15.140625 0 C 13.921875 -0.0507812 11.863281 -0.078125 8.96875 -0.078125 C 5.507812 -0.078125 2.898438 -0.0507812 1.140625 0 L 1.140625 -0.546875 C 1.785156 -0.578125 2.253906 -0.644531 2.546875 -0.75 C 2.847656 -0.863281 3.050781 -1.070312 3.15625 -1.375 C 3.269531 -1.6875 3.328125 -2.179688 3.328125 -2.859375 L 3.328125 -16.25 C 3.328125 -16.9375 3.269531 -17.429688 3.15625 -17.734375 C 3.050781 -18.046875 2.847656 -18.253906 2.546875 -18.359375 C 2.253906 -18.460938 1.785156 -18.535156 1.140625 -18.578125 L 1.140625 -19.109375 C 2.898438 -19.054688 5.507812 -19.03125 8.96875 -19.03125 C 11.613281 -19.03125 13.492188 -19.054688 14.609375 -19.109375 C 14.484375 -17.921875 14.421875 -16.863281 14.421875 -15.9375 C 14.421875 -15.226562 14.445312 -14.664062 14.5 -14.25 L 13.875 -14.25 C 13.75 -15.425781 13.585938 -16.296875 13.390625 -16.859375 C 13.191406 -17.429688 12.859375 -17.847656 12.390625 -18.109375 C 11.921875 -18.367188 11.210938 -18.5 10.265625 -18.5 L 8.015625 -18.5 C 7.367188 -18.5 6.894531 -18.445312 6.59375 -18.34375 C 6.300781 -18.25 6.097656 -18.046875 5.984375 -17.734375 C 5.878906 -17.429688 5.828125 -16.9375 5.828125 -16.25 L 5.828125 -9.875 L 7.609375 -9.875 C 8.242188 -9.875 8.726562 -10.019531 9.0625 -10.3125 C 9.40625 -10.613281 9.632812 -10.96875 9.75 -11.375 C 9.875 -11.78125 9.972656 -12.289062 10.046875 -12.90625 L 10.125 -13.453125 L 10.75 -13.453125 C 10.695312 -12.691406 10.671875 -11.84375 10.671875 -10.90625 L 10.671875 -9.609375 C 10.671875 -8.691406 10.722656 -7.414062 10.828125 -5.78125 L 10.203125 -5.78125 C 10.179688 -5.90625 10.125 -6.335938 10.03125 -7.078125 C 9.945312 -7.828125 9.703125 -8.390625 9.296875 -8.765625 C 8.890625 -9.148438 8.328125 -9.34375 7.609375 -9.34375 L 5.828125 -9.34375 L 5.828125 -2.859375 C 5.828125 -2.179688 5.878906 -1.6875 5.984375 -1.375 C 6.097656 -1.070312 6.300781 -0.867188 6.59375 -0.765625 C 6.894531 -0.671875 7.367188 -0.625 8.015625 -0.625 L 9.984375 -0.625 C 11.097656 -0.625 11.945312 -0.769531 12.53125 -1.0625 C 13.125 -1.363281 13.554688 -1.84375 13.828125 -2.5 C 14.097656 -3.15625 14.296875 -4.125 14.421875 -5.40625 L 15.03125 -5.40625 C 14.976562 -4.914062 14.953125 -4.265625 14.953125 -3.453125 Z M 14.953125 -3.453125 "/></g></g></g><g fill="#000000" fill-opacity="1"><g transform="translate(156.187494, 222.042393)"><g><path d="M 5.859375 -1.65625 L 5.421875 0 L 0.125 0 L 0.125 -0.1875 C 0.476562 -0.207031 0.707031 -0.269531 0.8125 -0.375 C 0.914062 -0.488281 0.96875 -0.71875 0.96875 -1.0625 L 0.96875 -5.421875 C 0.96875 -5.773438 0.914062 -6.003906 0.8125 -6.109375 C 0.71875 -6.210938 0.488281 -6.28125 0.125 -6.3125 L 0.125 -6.5 L 5.328125 -6.5 L 5.359375 -5.09375 L 5.109375 -5.09375 C 5.023438 -5.53125 4.894531 -5.8125 4.71875 -5.9375 C 4.539062 -6.0625 4.175781 -6.125 3.625 -6.125 L 2.296875 -6.125 C 2.160156 -6.125 2.070312 -6.101562 2.03125 -6.0625 C 1.988281 -6.019531 1.96875 -5.929688 1.96875 -5.796875 L 1.96875 -3.609375 L 3.484375 -3.609375 C 3.878906 -3.609375 4.140625 -3.660156 4.265625 -3.765625 C 4.398438 -3.878906 4.5 -4.140625 4.5625 -4.546875 L 4.78125 -4.546875 L 4.78125 -2.265625 L 4.5625 -2.265625 C 4.5 -2.671875 4.40625 -2.925781 4.28125 -3.03125 C 4.15625 -3.144531 3.890625 -3.203125 3.484375 -3.203125 L 1.96875 -3.203125 L 1.96875 -0.78125 C 1.96875 -0.601562 1.992188 -0.5 2.046875 -0.46875 C 2.140625 -0.394531 2.457031 -0.359375 3 -0.359375 L 3.265625 -0.359375 C 3.960938 -0.359375 4.460938 -0.441406 4.765625 -0.609375 C 5.066406 -0.773438 5.335938 -1.125 5.578125 -1.65625 Z M 5.859375 -1.65625 "/></g></g></g><g fill="#000000" fill-opacity="1"><g transform="translate(163.162534, 222.042393)"><g><path d="M 4.8125 -1.65625 C 4.8125 -1.144531 4.617188 -0.71875 4.234375 -0.375 C 3.859375 -0.03125 3.382812 0.140625 2.8125 0.140625 C 2.425781 0.140625 2.039062 0.0625 1.65625 -0.09375 C 1.457031 -0.164062 1.304688 -0.203125 1.203125 -0.203125 C 1.128906 -0.203125 1.066406 -0.171875 1.015625 -0.109375 C 0.960938 -0.046875 0.929688 0.03125 0.921875 0.125 L 0.703125 0.125 L 0.40625 -1.953125 L 0.640625 -1.953125 C 0.890625 -1.347656 1.171875 -0.90625 1.484375 -0.625 C 1.804688 -0.351562 2.1875 -0.21875 2.625 -0.21875 C 2.976562 -0.21875 3.265625 -0.316406 3.484375 -0.515625 C 3.710938 -0.722656 3.828125 -0.988281 3.828125 -1.3125 C 3.828125 -1.550781 3.78125 -1.742188 3.6875 -1.890625 C 3.445312 -2.253906 2.960938 -2.640625 2.234375 -3.046875 C 1.679688 -3.328125 1.285156 -3.613281 1.046875 -3.90625 C 0.816406 -4.207031 0.703125 -4.554688 0.703125 -4.953125 C 0.703125 -5.484375 0.890625 -5.90625 1.265625 -6.21875 C 1.609375 -6.5 1.976562 -6.640625 2.375 -6.640625 C 2.695312 -6.640625 3.050781 -6.566406 3.4375 -6.421875 C 3.613281 -6.335938 3.753906 -6.296875 3.859375 -6.296875 C 4.035156 -6.296875 4.144531 -6.410156 4.1875 -6.640625 L 4.390625 -6.640625 L 4.609375 -4.546875 L 4.359375 -4.546875 C 4.222656 -5.035156 4.023438 -5.414062 3.765625 -5.6875 C 3.410156 -6.050781 3.007812 -6.234375 2.5625 -6.234375 C 2.25 -6.234375 2 -6.148438 1.8125 -5.984375 C 1.632812 -5.816406 1.546875 -5.597656 1.546875 -5.328125 C 1.546875 -5.054688 1.65625 -4.800781 1.875 -4.5625 C 2.09375 -4.332031 2.460938 -4.078125 2.984375 -3.796875 C 3.628906 -3.441406 4.09375 -3.09375 4.375 -2.75 C 4.664062 -2.414062 4.8125 -2.050781 4.8125 -1.65625 Z M 4.8125 -1.65625 "/></g></g></g><g fill="#000000" fill-opacity="1"><g transform="translate(169.598099, 222.042393)"><g><path d="M 5.8125 -4.828125 L 5.578125 -4.828125 C 5.472656 -5.367188 5.328125 -5.710938 5.140625 -5.859375 C 4.953125 -6.003906 4.578125 -6.078125 4.015625 -6.078125 L 3.5 -6.078125 L 3.5 -1.0625 C 3.5 -0.707031 3.550781 -0.476562 3.65625 -0.375 C 3.769531 -0.269531 4.03125 -0.207031 4.4375 -0.1875 L 4.4375 0 L 1.5625 0 L 1.5625 -0.1875 C 1.96875 -0.207031 2.222656 -0.269531 2.328125 -0.375 C 2.441406 -0.488281 2.5 -0.753906 2.5 -1.171875 L 2.5 -6.078125 L 1.96875 -6.078125 C 1.414062 -6.078125 1.046875 -6 0.859375 -5.84375 C 0.671875 -5.695312 0.519531 -5.359375 0.40625 -4.828125 L 0.171875 -4.828125 L 0.21875 -6.5 L 5.765625 -6.5 Z M 5.8125 -4.828125 "/></g></g></g><g fill="#000000" fill-opacity="1"><g transform="translate(176.57314, 222.042393)"><g/></g></g><g fill="#000000" fill-opacity="1"><g transform="translate(180.007251, 222.042393)"><g><path d="M 4.65625 -1.34375 L 4.125 0 L 0.296875 0 L 0.296875 -0.125 L 2.046875 -1.96875 C 2.890625 -2.875 3.3125 -3.726562 3.3125 -4.53125 C 3.3125 -4.9375 3.179688 -5.265625 2.921875 -5.515625 C 2.671875 -5.773438 2.34375 -5.90625 1.9375 -5.90625 C 1.59375 -5.90625 1.316406 -5.8125 1.109375 -5.625 C 0.898438 -5.4375 0.703125 -5.101562 0.515625 -4.625 L 0.296875 -4.6875 C 0.441406 -5.289062 0.65625 -5.738281 0.9375 -6.03125 C 1.300781 -6.4375 1.769531 -6.640625 2.34375 -6.640625 C 2.851562 -6.640625 3.28125 -6.46875 3.625 -6.125 C 3.976562 -5.789062 4.15625 -5.378906 4.15625 -4.890625 C 4.15625 -4.148438 3.738281 -3.34375 2.90625 -2.46875 L 1.25 -0.75 L 3.59375 -0.75 C 3.820312 -0.75 3.988281 -0.785156 4.09375 -0.859375 C 4.207031 -0.929688 4.351562 -1.109375 4.53125 -1.390625 Z M 4.65625 -1.34375 "/></g></g></g><g fill="#000000" fill-opacity="1"><g transform="translate(185.893534, 222.042393)"><g><path d="M 4.671875 -3.234375 C 4.671875 -2.640625 4.582031 -2.082031 4.40625 -1.5625 C 4.238281 -1.039062 4.015625 -0.644531 3.734375 -0.375 C 3.378906 -0.03125 2.953125 0.140625 2.453125 0.140625 C 1.867188 0.140625 1.390625 -0.0820312 1.015625 -0.53125 C 0.785156 -0.800781 0.597656 -1.195312 0.453125 -1.71875 C 0.304688 -2.238281 0.234375 -2.765625 0.234375 -3.296875 C 0.234375 -3.867188 0.316406 -4.410156 0.484375 -4.921875 C 0.660156 -5.441406 0.890625 -5.84375 1.171875 -6.125 C 1.535156 -6.46875 1.976562 -6.640625 2.5 -6.640625 C 3.132812 -6.640625 3.65625 -6.320312 4.0625 -5.6875 C 4.46875 -5.0625 4.671875 -4.242188 4.671875 -3.234375 Z M 3.734375 -3.21875 C 3.734375 -4.25 3.625 -5.03125 3.40625 -5.5625 C 3.1875 -6.101562 2.875 -6.375 2.46875 -6.375 C 1.601562 -6.375 1.171875 -5.316406 1.171875 -3.203125 C 1.171875 -1.148438 1.597656 -0.125 2.453125 -0.125 C 3.304688 -0.125 3.734375 -1.15625 3.734375 -3.21875 Z M 3.734375 -3.21875 "/></g></g></g><g fill="#000000" fill-opacity="1"><g transform="translate(191.779816, 222.042393)"><g><path d="M 4.65625 -1.34375 L 4.125 0 L 0.296875 0 L 0.296875 -0.125 L 2.046875 -1.96875 C 2.890625 -2.875 3.3125 -3.726562 3.3125 -4.53125 C 3.3125 -4.9375 3.179688 -5.265625 2.921875 -5.515625 C 2.671875 -5.773438 2.34375 -5.90625 1.9375 -5.90625 C 1.59375 -5.90625 1.316406 -5.8125 1.109375 -5.625 C 0.898438 -5.4375 0.703125 -5.101562 0.515625 -4.625 L 0.296875 -4.6875 C 0.441406 -5.289062 0.65625 -5.738281 0.9375 -6.03125 C 1.300781 -6.4375 1.769531 -6.640625 2.34375 -6.640625 C 2.851562 -6.640625 3.28125 -6.46875 3.625 -6.125 C 3.976562 -5.789062 4.15625 -5.378906 4.15625 -4.890625 C 4.15625 -4.148438 3.738281 -3.34375 2.90625 -2.46875 L 1.25 -0.75 L 3.59375 -0.75 C 3.820312 -0.75 3.988281 -0.785156 4.09375 -0.859375 C 4.207031 -0.929688 4.351562 -1.109375 4.53125 -1.390625 Z M 4.65625 -1.34375 "/></g></g></g><g fill="#000000" fill-opacity="1"><g transform="translate(197.666099, 222.042393)"><g><path d="M 4.65625 -1.34375 L 4.125 0 L 0.296875 0 L 0.296875 -0.125 L 2.046875 -1.96875 C 2.890625 -2.875 3.3125 -3.726562 3.3125 -4.53125 C 3.3125 -4.9375 3.179688 -5.265625 2.921875 -5.515625 C 2.671875 -5.773438 2.34375 -5.90625 1.9375 -5.90625 C 1.59375 -5.90625 1.316406 -5.8125 1.109375 -5.625 C 0.898438 -5.4375 0.703125 -5.101562 0.515625 -4.625 L 0.296875 -4.6875 C 0.441406 -5.289062 0.65625 -5.738281 0.9375 -6.03125 C 1.300781 -6.4375 1.769531 -6.640625 2.34375 -6.640625 C 2.851562 -6.640625 3.28125 -6.46875 3.625 -6.125 C 3.976562 -5.789062 4.15625 -5.378906 4.15625 -4.890625 C 4.15625 -4.148438 3.738281 -3.34375 2.90625 -2.46875 L 1.25 -0.75 L 3.59375 -0.75 C 3.820312 -0.75 3.988281 -0.785156 4.09375 -0.859375 C 4.207031 -0.929688 4.351562 -1.109375 4.53125 -1.390625 Z M 4.65625 -1.34375 "/></g></g></g></svg>